<?xml version="1.0" encoding="utf-8"?>
<!-- Generator: Adobe Illustrator 16.0.0, SVG Export Plug-In . SVG Version: 6.00 Build 0)  -->
<!DOCTYPE svg PUBLIC "-//W3C//DTD SVG 1.1//EN" "http://www.w3.org/Graphics/SVG/1.1/DTD/svg11.dtd">
<svg version="1.1" id="Layer_1" xmlns="http://www.w3.org/2000/svg" xmlns:xlink="http://www.w3.org/1999/xlink" x="0px" y="0px"
	 width="161.968px" height="179.964px" viewBox="0 0 161.968 179.964" enable-background="new 0 0 161.968 179.964"
	 xml:space="preserve">
<g>
	<path fill-rule="evenodd" clip-rule="evenodd" fill="#FFFFFF" d="M47.064,123.406c-0.865-2.122-1.389-4.316-1.446-6.614
		c-0.079-3.123,0.724-6.015,2.284-8.71c1.879-3.242,4.563-5.603,7.916-7.233c1.542-0.75,3.154-1.319,4.783-1.849
		c0.441-0.144,0.882-0.291,1.351-0.445c0.038-1.533,0.073-3.038,0.112-4.588c-0.32,0.052-0.613,0.077-0.896,0.148
		c-0.568,0.142-1.13,0.303-1.692,0.467c-1.888,0.551-3.733,1.207-5.5,2.075c-2.19,1.075-4.183,2.427-5.874,4.198
		c-2.14,2.24-3.527,4.889-4.251,7.892c-0.216,0.896-0.374,1.802-0.462,2.72c-0.01,0.11-0.029,0.221-0.05,0.363
		c-0.376-0.018-0.741-0.036-1.133-0.055c-0.006-0.105-0.017-0.195-0.017-0.285c0.039-2.401,0.42-4.74,1.295-6.986
		c1.115-2.871,2.894-5.27,5.213-7.278c1.959-1.694,4.159-3.003,6.499-4.091c1.791-0.832,3.639-1.516,5.517-2.121
		c0.104-0.033,0.207-0.071,0.339-0.117c-0.688-1.129-1.359-2.229-2.04-3.349c-0.465,0.112-0.916,0.217-1.364,0.331
		c-2.45,0.622-4.828,1.442-7.091,2.58c-2.082,1.049-3.998,2.336-5.668,3.973c-2.487,2.433-4.113,5.352-4.945,8.722
		c-0.369,1.495-0.562,3.014-0.631,4.552c-0.055,1.238-0.057,2.475,0.016,3.711c0.19,3.213,0.814,6.322,2.222,9.244
		c0.417,0.865,0.897,1.693,1.446,2.481L47.064,123.406z"/>
	<g>
		<path fill="#FFFFFF" d="M122.471,73.619c-0.663-2.531-3.642-4.104-5.958-3.439c-5.175,1.483-10.4,2.795-15.598,4.195
			c-0.45,0.121-0.773,0.072-1.152-0.214c-5.148-3.905-10.31-7.794-15.469-11.687c-2.476-1.869-4.952-3.737-7.431-5.605
			c-0.238-0.18-0.448-0.383-0.81-0.285c-1.62,0.441-3.244,0.86-4.867,1.291c-0.062,0.018-0.115,0.073-0.219,0.141
			c4.441,6.846,8.879,13.686,13.37,20.605c-0.698,0.188-1.297,0.352-1.897,0.511c-3.559,0.948-7.119,1.892-10.675,2.852
			c-0.435,0.117-0.782,0.09-1.163-0.19c-0.73-0.539-1.506-1.02-2.264-1.525c-2.364-1.582-4.728-3.166-7.1-4.739
			c-0.199-0.133-0.477-0.298-0.68-0.256c-0.83,0.171-1.647,0.415-2.502,0.642c0.169,0.365,0.302,0.652,0.43,0.929
			c-0.174,0.118-0.299,0.202-0.436,0.295c0.182,0.303,0.336,0.563,0.494,0.821c1.869,3.067,3.787,6.106,5.594,9.21
			c1.457,2.503,1.185,1.431,1.166,4.328c-0.025,3.685-0.16,7.369-0.247,11.054c-0.005,0.221-0.003,0.441-0.003,0.643
			c0.24,0.023,0.387,0.037,0.529,0.051c0.021,0.338,0.039,0.613,0.064,1.002c0.725-0.191,1.369-0.401,2.029-0.527
			c0.518-0.099,0.781-0.389,1-0.842c1.619-3.336,3.268-6.656,4.889-9.991c0.199-0.409,0.449-0.642,0.902-0.763
			c3.965-1.049,7.924-2.125,11.885-3.188c0.211-0.057,0.43-0.081,0.713-0.132c-0.148,2.812-0.295,5.535-0.438,8.258
			c-0.141,2.702-0.291,5.404-0.42,8.107c-0.127,2.707-0.309,5.414-0.403,8.194c1.66-0.451,3.204-0.893,4.762-1.282
			c0.512-0.127,0.763-0.395,0.962-0.871c1.754-4.194,3.535-8.377,5.309-12.563c1.938-4.572,3.884-9.142,5.801-13.722
			c0.195-0.464,0.463-0.701,0.936-0.802c0.523-0.111,1.037-0.274,1.554-0.413c4.703-1.269,9.405-2.543,14.111-3.801
			c1.088-0.292,1.929-0.891,2.561-1.82C122.745,76.701,122.894,75.236,122.471,73.619z"/>
	</g>
</g>
</svg>
