<?xml version="1.0" encoding="utf-8"?>
<!-- Generator: Adobe Illustrator 16.0.0, SVG Export Plug-In . SVG Version: 6.00 Build 0)  -->
<!DOCTYPE svg PUBLIC "-//W3C//DTD SVG 1.1//EN" "http://www.w3.org/Graphics/SVG/1.1/DTD/svg11.dtd">
<svg version="1.1" id="Layer_1" xmlns="http://www.w3.org/2000/svg" xmlns:xlink="http://www.w3.org/1999/xlink" x="0px" y="0px"
	 width="161.968px" height="179.964px" viewBox="0 0 161.968 179.964" enable-background="new 0 0 161.968 179.964"
	 xml:space="preserve">
<g>
	<path fill-rule="evenodd" clip-rule="evenodd" fill="#FFFFFF" d="M118.973,123.141c0.548-0.788,1.027-1.616,1.445-2.481
		c1.407-2.922,2.031-6.031,2.222-9.244c0.072-1.236,0.07-2.473,0.015-3.711c-0.068-1.538-0.261-3.057-0.629-4.552
		c-0.832-3.37-2.459-6.289-4.944-8.722c-1.672-1.637-3.588-2.924-5.67-3.973c-2.261-1.138-4.641-1.958-7.09-2.58
		c-0.449-0.114-0.9-0.219-1.364-0.331c-0.682,1.12-1.353,2.22-2.041,3.349c0.131,0.046,0.234,0.084,0.339,0.117
		c1.878,0.605,3.726,1.289,5.517,2.121c2.34,1.088,4.54,2.396,6.498,4.091c2.32,2.009,4.098,4.407,5.215,7.278
		c0.873,2.246,1.254,4.585,1.293,6.986c0.001,0.09-0.01,0.18-0.015,0.285c-0.392,0.019-0.758,0.037-1.134,0.055
		c-0.02-0.143-0.04-0.253-0.051-0.363c-0.087-0.918-0.245-1.824-0.461-2.72c-0.725-3.003-2.11-5.651-4.25-7.892
		c-1.692-1.771-3.685-3.123-5.874-4.198c-1.767-0.868-3.614-1.524-5.5-2.075c-0.562-0.164-1.126-0.325-1.694-0.467
		c-0.283-0.071-0.575-0.097-0.896-0.148c0.038,1.55,0.075,3.055,0.112,4.588c0.469,0.154,0.909,0.302,1.35,0.445
		c1.63,0.529,3.242,1.099,4.785,1.849c3.353,1.631,6.035,3.991,7.916,7.233c1.561,2.695,2.362,5.587,2.283,8.71
		c-0.058,2.298-0.582,4.492-1.446,6.614L118.973,123.141z"/>
	<g>
		<path fill="#FFFFFF" d="M40.167,78.087c0.633,0.93,1.473,1.528,2.562,1.82c4.704,1.258,9.407,2.532,14.11,3.801
			c0.518,0.139,1.029,0.302,1.554,0.413c0.474,0.101,0.739,0.338,0.935,0.802c1.918,4.58,3.865,9.149,5.802,13.722
			c1.772,4.187,3.555,8.369,5.309,12.563c0.198,0.477,0.45,0.744,0.962,0.871c1.558,0.39,3.102,0.831,4.763,1.282
			c-0.097-2.78-0.278-5.487-0.405-8.194c-0.128-2.703-0.278-5.405-0.42-8.107c-0.143-2.723-0.289-5.445-0.436-8.258
			c0.282,0.051,0.5,0.075,0.712,0.132c3.961,1.063,7.92,2.14,11.885,3.188c0.452,0.121,0.703,0.354,0.903,0.763
			c1.62,3.335,3.268,6.655,4.887,9.991c0.22,0.453,0.482,0.743,1.002,0.842c0.66,0.126,1.304,0.336,2.027,0.527
			c0.026-0.389,0.044-0.664,0.066-1.002c0.143-0.014,0.288-0.027,0.527-0.051c0-0.201,0.004-0.422-0.001-0.643
			c-0.088-3.685-0.224-7.369-0.248-11.054c-0.019-2.897-0.291-1.825,1.166-4.328c1.807-3.104,3.724-6.143,5.594-9.21
			c0.158-0.258,0.313-0.519,0.493-0.821c-0.137-0.093-0.261-0.177-0.435-0.295c0.129-0.276,0.261-0.563,0.43-0.929
			c-0.854-0.227-1.672-0.471-2.503-0.642c-0.202-0.042-0.479,0.123-0.679,0.256c-2.37,1.573-4.735,3.157-7.101,4.739
			c-0.756,0.506-1.531,0.986-2.263,1.525c-0.38,0.28-0.728,0.308-1.163,0.19c-3.556-0.96-7.115-1.903-10.675-2.852
			c-0.6-0.159-1.2-0.323-1.897-0.511c4.49-6.92,8.929-13.76,13.369-20.605c-0.102-0.067-0.155-0.123-0.218-0.141
			c-1.622-0.431-3.247-0.85-4.866-1.291c-0.361-0.098-0.571,0.105-0.81,0.285c-2.479,1.868-4.956,3.736-7.433,5.605
			c-5.158,3.893-10.319,7.781-15.468,11.687c-0.379,0.286-0.701,0.335-1.153,0.214c-5.197-1.4-10.422-2.712-15.596-4.195
			c-2.317-0.664-5.297,0.908-5.959,3.439C39.074,75.236,39.223,76.701,40.167,78.087z"/>
	</g>
</g>
</svg>
