<?xml version="1.0" encoding="utf-8"?>
<!-- Generator: Adobe Illustrator 16.0.0, SVG Export Plug-In . SVG Version: 6.00 Build 0)  -->
<!DOCTYPE svg PUBLIC "-//W3C//DTD SVG 1.1//EN" "http://www.w3.org/Graphics/SVG/1.1/DTD/svg11.dtd">
<svg version="1.1" id="Layer_1" xmlns="http://www.w3.org/2000/svg" xmlns:xlink="http://www.w3.org/1999/xlink" x="0px" y="0px"
	 width="161.968px" height="179.964px" viewBox="0 0 161.968 179.964" enable-background="new 0 0 161.968 179.964"
	 xml:space="preserve">
<g>
	<g>
		<circle fill="#1FD3FF" cx="83.457" cy="82.061" r="30.737"/>
		<circle fill="#2786B3" cx="83.457" cy="82.061" r="26.761"/>
		
			<circle fill="#FFFFFF" stroke="#FFFFFF" stroke-width="2.4125" stroke-linecap="round" stroke-linejoin="round" stroke-miterlimit="10" cx="83.457" cy="82.061" r="22.286"/>
		<circle fill="#1FD3FF" cx="83.456" cy="82.061" r="20.348"/>
		<circle fill="#2786B3" cx="83.457" cy="82.061" r="16.968"/>
		
			<circle fill="#FFFFFF" stroke="#FFFFFF" stroke-width="3.4797" stroke-linecap="round" stroke-linejoin="round" stroke-miterlimit="10" cx="83.457" cy="82.061" r="12.164"/>
		<circle fill="#1FD3FF" cx="83.457" cy="82.061" r="11.003"/>
		<circle fill="#2786B3" cx="83.457" cy="82.061" r="8.187"/>
		
			<circle fill="#ED6E72" stroke="#ED6E72" stroke-width="2.8728" stroke-linecap="round" stroke-linejoin="round" stroke-miterlimit="10" cx="83.456" cy="82.061" r="4.707"/>
		<g>
			
				<line fill="#2786B3" stroke="#000000" stroke-linecap="round" stroke-linejoin="round" stroke-miterlimit="10" x1="83.564" y1="81.583" x2="136.564" y2="81.583"/>
			<polygon stroke="#000000" stroke-linecap="round" stroke-linejoin="round" stroke-miterlimit="10" points="136.598,81.446 
				139.806,78.239 130.315,77.829 127.123,81.021 			"/>
			<polygon stroke="#000000" stroke-linecap="round" stroke-linejoin="round" stroke-miterlimit="10" points="136.655,81.527 
				139.862,84.735 130.373,85.144 127.18,81.951 			"/>
		</g>
	</g>
	<g>
		<path d="M50.992,123.712l-2.079,4.202H47.89l-2.068-4.202v4.84h-1.716v-7.689h2.321l1.98,4.224l1.991-4.224h2.31v7.689h-1.716
			V123.712z"/>
		<path d="M61.343,127.491c-0.777,0.759-1.734,1.139-2.871,1.139s-2.094-0.38-2.871-1.139s-1.166-1.703-1.166-2.833
			s0.389-2.073,1.166-2.833c0.777-0.759,1.734-1.139,2.871-1.139s2.094,0.38,2.871,1.139c0.777,0.759,1.166,1.703,1.166,2.833
			S62.12,126.732,61.343,127.491z M60.76,124.664c0-0.686-0.22-1.271-0.66-1.754s-0.981-0.726-1.623-0.726s-1.182,0.242-1.623,0.726
			c-0.44,0.484-0.66,1.069-0.66,1.754c0,0.686,0.22,1.269,0.66,1.749c0.44,0.48,0.981,0.721,1.623,0.721s1.183-0.24,1.623-0.721
			C60.54,125.933,60.76,125.35,60.76,124.664z"/>
		<path d="M67.283,122.348v6.204h-1.716v-6.204h-2.178v-1.485h6.072v1.485H67.283z"/>
		<path d="M70.989,120.863h1.716v7.689h-1.716V120.863z"/>
		<path d="M77.71,125.758l1.958-4.895h1.859l-3.091,7.689h-1.452l-3.091-7.689h1.859L77.71,125.758z"/>
		<path d="M87.72,128.552l-0.715-1.661h-3.223l-0.715,1.661h-1.826l3.322-7.689h1.661l3.322,7.689H87.72z M85.399,123.151
			l-0.968,2.233h1.925L85.399,123.151z"/>
		<path d="M94.243,127.034c0.843,0,1.533-0.333,2.068-1.001l1.1,1.133c-0.873,0.983-1.901,1.474-3.085,1.474
			c-1.185,0-2.16-0.374-2.926-1.122c-0.766-0.748-1.149-1.692-1.149-2.833c0-1.14,0.391-2.091,1.171-2.854
			c0.781-0.762,1.736-1.144,2.866-1.144c1.261,0,2.317,0.48,3.168,1.441l-1.067,1.21c-0.543-0.675-1.217-1.012-2.024-1.012
			c-0.646,0-1.197,0.211-1.656,0.633c-0.458,0.421-0.688,0.99-0.688,1.705c0,0.715,0.216,1.289,0.649,1.722
			S93.627,127.034,94.243,127.034z"/>
		<path d="M99.039,120.863h1.716v7.689h-1.716V120.863z"/>
		<path d="M109.39,127.491c-0.777,0.759-1.734,1.139-2.871,1.139s-2.094-0.38-2.871-1.139s-1.166-1.703-1.166-2.833
			s0.389-2.073,1.166-2.833c0.777-0.759,1.734-1.139,2.871-1.139s2.094,0.38,2.871,1.139c0.777,0.759,1.166,1.703,1.166,2.833
			S110.167,126.732,109.39,127.491z M108.807,124.664c0-0.686-0.22-1.271-0.66-1.754s-0.981-0.726-1.623-0.726
			s-1.182,0.242-1.623,0.726c-0.44,0.484-0.66,1.069-0.66,1.754c0,0.686,0.22,1.269,0.66,1.749c0.44,0.48,0.981,0.721,1.623,0.721
			s1.183-0.24,1.623-0.721C108.587,125.933,108.807,125.35,108.807,124.664z M107.311,120.071h-1.573l1.397-1.947l1.705,0.715
			L107.311,120.071z"/>
		<path d="M117.662,120.863h1.716v7.689h-1.716l-3.663-4.818v4.818h-1.716v-7.689h1.606l3.773,4.95V120.863z"/>
	</g>
</g>
</svg>
